<?xml version="1.0" encoding="UTF-8"?>
<!DOCTYPE svg PUBLIC "-//W3C//DTD SVG 1.1//EN"
    "http://www.w3.org/Graphics/SVG/1.1/DTD/svg11.dtd">
<svg xmlns="http://www.w3.org/2000/svg" xmlns:xlink="http://www.w3.org/1999/xlink" viewBox="100 75 800 800" width="900.0" height="700.0"><text x="40.0" y="140.0" font-size="50">x</text><rect x="100.0" y="100.0" width="50.0" height="50.0" fill="none" stroke="black" stroke-width="1" /><rect x="150.0" y="100.0" width="50.0" height="50.0" fill="none" stroke="black" stroke-width="1" /><text x="110.0" y="140.0" font-size="50">1</text><line x1="175.0" y1="125.0" x2="250.0" y2="125.0" fill="none" stroke="black" stroke-width="1" /><line x1="250.0" y1="125.0" x2="241.9098300562505" y2="119.12214747707527" fill="none" stroke="black" stroke-width="1" /><line x1="250.0" y1="125.0" x2="241.9098300562505" y2="130.87785252292474" fill="none" stroke="black" stroke-width="1" /><rect x="250.0" y="100.0" width="50.0" height="50.0" fill="none" stroke="black" stroke-width="1" /><rect x="300.0" y="100.0" width="50.0" height="50.0" fill="none" stroke="black" stroke-width="1" /><text x="260.0" y="140.0" font-size="50">2</text><line x1="325.0" y1="125.0" x2="400.0" y2="125.0" fill="none" stroke="black" stroke-width="1" /><line x1="400.0" y1="125.0" x2="391.90983005625054" y2="119.12214747707527" fill="none" stroke="black" stroke-width="1" /><line x1="400.0" y1="125.0" x2="391.90983005625054" y2="130.87785252292474" fill="none" stroke="black" stroke-width="1" /><rect x="400.0" y="100.0" width="50.0" height="50.0" fill="none" stroke="black" stroke-width="1" /><rect x="450.0" y="100.0" width="50.0" height="50.0" fill="none" stroke="black" stroke-width="1" /><text x="410.0" y="140.0" font-size="50">3</text><line x1="450.0" y1="100.0" x2="500.0" y2="150.0" fill="none" stroke="black" stroke-width="1" /><text x="40.0" y="240.0" font-size="50">x&#39;</text><rect x="100.0" y="200.0" width="50.0" height="50.0" fill="none" stroke="black" stroke-width="1" /><rect x="150.0" y="200.0" width="50.0" height="50.0" fill="none" stroke="black" stroke-width="1" /><text x="110.0" y="240.0" font-size="50">1</text><line x1="175.0" y1="225.0" x2="250.0" y2="225.0" fill="none" stroke="black" stroke-width="1" /><line x1="250.0" y1="225.0" x2="241.9098300562505" y2="219.12214747707526" fill="none" stroke="black" stroke-width="1" /><line x1="250.0" y1="225.0" x2="241.9098300562505" y2="230.87785252292474" fill="none" stroke="black" stroke-width="1" /><rect x="250.0" y="200.0" width="50.0" height="50.0" fill="none" stroke="black" stroke-width="1" /><rect x="300.0" y="200.0" width="50.0" height="50.0" fill="none" stroke="black" stroke-width="1" /><text x="260.0" y="240.0" font-size="50">2</text><line x1="325.0" y1="225.0" x2="400.0" y2="225.0" fill="none" stroke="black" stroke-width="1" /><line x1="400.0" y1="225.0" x2="391.90983005625054" y2="219.12214747707526" fill="none" stroke="black" stroke-width="1" /><line x1="400.0" y1="225.0" x2="391.90983005625054" y2="230.87785252292474" fill="none" stroke="black" stroke-width="1" /><rect x="400.0" y="200.0" width="50.0" height="50.0" fill="none" stroke="black" stroke-width="1" /><rect x="450.0" y="200.0" width="50.0" height="50.0" fill="none" stroke="black" stroke-width="1" /><text x="410.0" y="240.0" font-size="50">3</text><line x1="450.0" y1="200.0" x2="500.0" y2="250.0" fill="none" stroke="black" stroke-width="1" /><text x="40.0" y="340.0" font-size="50">tail x&#39;</text><line x1="175.0" y1="325.0" x2="275.0" y2="250.0" fill="none" stroke="black" stroke-width="1" /><line x1="275.0" y1="250.0" x2="265.00115253124557" y2="250.1518199479099" fill="none" stroke="black" stroke-width="1" /><line x1="275.0" y1="250.0" x2="272.05457555875523" y2="259.55638398458944" fill="none" stroke="black" stroke-width="1" /><text x="40.0" y="440.0" font-size="50">y</text><rect x="100.0" y="400.0" width="50.0" height="50.0" fill="none" stroke="black" stroke-width="1" /><rect x="150.0" y="400.0" width="50.0" height="50.0" fill="none" stroke="black" stroke-width="1" /><text x="110.0" y="440.0" font-size="50">1</text><line x1="175.0" y1="425.0" x2="250.0" y2="425.0" fill="none" stroke="black" stroke-width="1" /><line x1="250.0" y1="425.0" x2="241.9098300562505" y2="419.12214747707526" fill="none" stroke="black" stroke-width="1" /><line x1="250.0" y1="425.0" x2="241.9098300562505" y2="430.87785252292474" fill="none" stroke="black" stroke-width="1" /><rect x="250.0" y="400.0" width="50.0" height="50.0" fill="none" stroke="black" stroke-width="1" /><rect x="300.0" y="400.0" width="50.0" height="50.0" fill="none" stroke="black" stroke-width="1" /><text x="260.0" y="440.0" font-size="50">2</text><line x1="325.0" y1="425.0" x2="325.0" y2="375.0" fill="none" stroke="black" stroke-width="1" /><line x1="325.0" y1="375.0" x2="125.0" y2="375.0" fill="none" stroke="black" stroke-width="1" /><line x1="125.0" y1="375.0" x2="125.0" y2="400.0" fill="none" stroke="black" stroke-width="1" /><line x1="125.0" y1="400.0" x2="130.87785252292474" y2="391.90983005625054" fill="none" stroke="black" stroke-width="1" /><line x1="125.0" y1="400.0" x2="119.12214747707527" y2="391.90983005625054" fill="none" stroke="black" stroke-width="1" /><text x="40.0" y="740.0" font-size="50">z</text><rect x="100.0" y="700.0" width="50.0" height="50.0" fill="none" stroke="black" stroke-width="1" /><rect x="150.0" y="700.0" width="50.0" height="50.0" fill="none" stroke="black" stroke-width="1" /><text x="110.0" y="740.0" font-size="50">1</text><line x1="175.0" y1="725.0" x2="250.0" y2="725.0" fill="none" stroke="black" stroke-width="1" /><line x1="250.0" y1="725.0" x2="241.9098300562505" y2="719.1221474770753" fill="none" stroke="black" stroke-width="1" /><line x1="250.0" y1="725.0" x2="241.9098300562505" y2="730.8778525229247" fill="none" stroke="black" stroke-width="1" /><rect x="250.0" y="700.0" width="50.0" height="50.0" fill="none" stroke="black" stroke-width="1" /><rect x="300.0" y="700.0" width="50.0" height="50.0" fill="none" stroke="black" stroke-width="1" /><text x="260.0" y="740.0" font-size="50">1</text><line x1="325.0" y1="725.0" x2="400.0" y2="725.0" fill="none" stroke="black" stroke-width="1" /><line x1="400.0" y1="725.0" x2="391.90983005625054" y2="719.1221474770753" fill="none" stroke="black" stroke-width="1" /><line x1="400.0" y1="725.0" x2="391.90983005625054" y2="730.8778525229247" fill="none" stroke="black" stroke-width="1" /><rect x="400.0" y="700.0" width="50.0" height="50.0" fill="none" stroke="black" stroke-width="1" /><rect x="450.0" y="700.0" width="50.0" height="50.0" fill="none" stroke="black" stroke-width="1" /><text x="410.0" y="740.0" font-size="50">...</text><line x1="475.0" y1="725.0" x2="550.0" y2="725.0" fill="none" stroke="black" stroke-width="1" /><line x1="550.0" y1="725.0" x2="541.9098300562505" y2="719.1221474770753" fill="none" stroke="black" stroke-width="1" /><line x1="550.0" y1="725.0" x2="541.9098300562505" y2="730.8778525229247" fill="none" stroke="black" stroke-width="1" /><rect x="550.0" y="700.0" width="50.0" height="50.0" fill="none" stroke="black" stroke-width="1" /><rect x="600.0" y="700.0" width="50.0" height="50.0" fill="none" stroke="black" stroke-width="1" /><text x="560.0" y="740.0" font-size="50">...</text><line x1="625.0" y1="725.0" x2="700.0" y2="725.0" fill="none" stroke="black" stroke-width="1" /><line x1="700.0" y1="725.0" x2="691.9098300562505" y2="719.1221474770753" fill="none" stroke="black" stroke-width="1" /><line x1="700.0" y1="725.0" x2="691.9098300562505" y2="730.8778525229247" fill="none" stroke="black" stroke-width="1" /><rect x="700.0" y="700.0" width="50.0" height="50.0" fill="none" stroke="black" stroke-width="1" /><rect x="750.0" y="700.0" width="50.0" height="50.0" fill="none" stroke="black" stroke-width="1" /><text x="710.0" y="740.0" font-size="50">...</text><line x1="775.0" y1="725.0" x2="850.0" y2="725.0" fill="none" stroke="black" stroke-width="1" /><line x1="850.0" y1="725.0" x2="841.9098300562505" y2="719.1221474770753" fill="none" stroke="black" stroke-width="1" /><line x1="850.0" y1="725.0" x2="841.9098300562505" y2="730.8778525229247" fill="none" stroke="black" stroke-width="1" /><rect x="850.0" y="700.0" width="50.0" height="50.0" fill="none" stroke="black" stroke-width="1" /><rect x="900.0" y="700.0" width="50.0" height="50.0" fill="none" stroke="black" stroke-width="1" /><text x="860.0" y="740.0" font-size="50">...</text><text x="40.0" y="840.0" font-size="50">tail z</text><line x1="175.0" y1="825.0" x2="275.0" y2="750.0" fill="none" stroke="black" stroke-width="1" /><line x1="275.0" y1="750.0" x2="265.00115253124557" y2="750.1518199479099" fill="none" stroke="black" stroke-width="1" /><line x1="275.0" y1="750.0" x2="272.05457555875523" y2="759.5563839845895" fill="none" stroke="black" stroke-width="1" /><line x1="105.0" y1="620.0" x2="405.0" y2="620.0" fill="none" stroke="black" stroke-width="1" /><text x="155.0" y="620.0" font-size="50">+</text><line x1="105.0" y1="620.0" x2="105.0" y2="700.0" fill="none" stroke="black" stroke-width="1" /><line x1="255.0" y1="620.0" x2="255.0" y2="700.0" fill="none" stroke="black" stroke-width="1" /><line x1="405.0" y1="620.0" x2="405.0" y2="700.0" fill="none" stroke="black" stroke-width="1" /><line x1="405.0" y1="700.0" x2="410.87785252292474" y2="691.9098300562505" fill="none" stroke="black" stroke-width="1" /><line x1="405.0" y1="700.0" x2="399.12214747707526" y2="691.9098300562505" fill="none" stroke="black" stroke-width="1" /><line x1="295.0" y1="640.0" x2="595.0" y2="640.0" fill="none" stroke="black" stroke-width="1" /><text x="345.0" y="640.0" font-size="50">+</text><line x1="295.0" y1="640.0" x2="295.0" y2="700.0" fill="none" stroke="black" stroke-width="1" /><line x1="445.0" y1="640.0" x2="445.0" y2="700.0" fill="none" stroke="black" stroke-width="1" /><line x1="595.0" y1="640.0" x2="595.0" y2="700.0" fill="none" stroke="black" stroke-width="1" /><line x1="595.0" y1="700.0" x2="600.8778525229247" y2="691.9098300562505" fill="none" stroke="black" stroke-width="1" /><line x1="595.0" y1="700.0" x2="589.1221474770753" y2="691.9098300562505" fill="none" stroke="black" stroke-width="1" /><line x1="415.0" y1="660.0" x2="715.0" y2="660.0" fill="none" stroke="black" stroke-width="1" /><text x="465.0" y="660.0" font-size="50">+</text><line x1="415.0" y1="660.0" x2="415.0" y2="700.0" fill="none" stroke="black" stroke-width="1" /><line x1="565.0" y1="660.0" x2="565.0" y2="700.0" fill="none" stroke="black" stroke-width="1" /><line x1="715.0" y1="660.0" x2="715.0" y2="700.0" fill="none" stroke="black" stroke-width="1" /><line x1="715.0" y1="700.0" x2="720.8778525229247" y2="691.9098300562505" fill="none" stroke="black" stroke-width="1" /><line x1="715.0" y1="700.0" x2="709.1221474770753" y2="691.9098300562505" fill="none" stroke="black" stroke-width="1" /><line x1="585.0" y1="680.0" x2="885.0" y2="680.0" fill="none" stroke="black" stroke-width="1" /><text x="635.0" y="680.0" font-size="50">+</text><line x1="585.0" y1="680.0" x2="585.0" y2="700.0" fill="none" stroke="black" stroke-width="1" /><line x1="735.0" y1="680.0" x2="735.0" y2="700.0" fill="none" stroke="black" stroke-width="1" /><line x1="885.0" y1="680.0" x2="885.0" y2="700.0" fill="none" stroke="black" stroke-width="1" /><line x1="885.0" y1="700.0" x2="890.8778525229247" y2="691.9098300562505" fill="none" stroke="black" stroke-width="1" /><line x1="885.0" y1="700.0" x2="879.1221474770753" y2="691.9098300562505" fill="none" stroke="black" stroke-width="1" /></svg>